<!-- assets/icons.svg -->
<svg xmlns="http://www.w3.org/2000/svg" style="display:none">
  <!-- GitHub -->
  <symbol id="icon-github" viewBox="0 0 24 24">
    <path
      fill="currentColor"
      d="M12 .5a12 12 0 0 0-3.79 23.4c.6.1.82-.26.82-.58v-2
         c-3.34.73-4.04-1.61-4.04-1.61-.55-1.4-1.34-1.77-1.34-1.77
         -1.1-.77.08-.75.08-.75 1.21.09 1.85 1.25 1.85 1.25
         1.08 1.85 2.83 1.32 3.52 1 .11-.8.42-1.32.76-1.62
         -2.67-.3-5.47-1.34-5.47-5A3.9 3.9 0 0 1 5.7 8.7
         3.6 3.6 0 0 1 5.8 6s1-.32 3.3 1.23a11.3 11.3 0 0 1 6 0
         C17.4 5.7 18.4 6 18.4 6a3.6 3.6 0 0 1 .1 2.7
         3.9 3.9 0 0 1 1 2.7c0 3.7-2.8 4.7-5.5 4.9.43.37.82 1.1.82 2.2v3.26
         c0 .32.22.69.82.58A12 12 0 0 0 12 .5Z" />
  </symbol>

  <!-- LinkedIn -->
  <symbol id="icon-linkedin" viewBox="0 0 24 24">
    <path
      fill="currentColor"
      d="M4.98 3.5A2.5 2.5 0 1 1 0 3.5a2.5 2.5 0 0 1 4.98 0ZM.5 8.25h4.9V24h-4.9V8.25Zm7.75 0h4.69v2.14h.07
         c.65-1.23 2.25-2.52 4.63-2.52C22.4 7.87 24 10.1 24 14.02V24h-4.9v-8.84
         c0-2.11-.75-3.55-2.63-3.55-1.44 0-2.29.97-2.67 1.9-.14.34-.18.82-.18 1.3V24H8.25V8.25Z" />
  </symbol>

  <!-- Email -->
  <symbol id="icon-mail" viewBox="0 0 24 24">
    <path
      fill="currentColor"
      d="M4 4h16a2 2 0 0 1 2 2v12a2 2 0 0 1-2 2H4a2 2 0 0 1-2-2V6a2 2 0 0 1 2-2Zm0 2v.01L12 13l8-6.99V6H4Zm0 3.24V18h16V9.24l-7.41 5.17a2 2 0 0 1-2.18 0L4 9.24Z" />
  </symbol>

  <!-- Credly (simplified badge C) -->
  <symbol id="icon-credly" viewBox="0 0 24 24">
    <circle cx="12" cy="12" r="10" fill="none" stroke="currentColor" />
    <path
      fill="currentColor"
      d="M15.5 9.2A4.2 4.2 0 0 0 12 7.5C9.9 7.5 8.2 9.2 8.2 12s1.7 4.5 3.8 4.5c1.6 0 2.7-.8 3.4-2.1l-1.5-.7
         c-.4.7-.9 1.2-1.9 1.2-1.2 0-2.1-1-2.1-2.9 0-1.9.9-2.9 2.1-2.9.9 0 1.4.4 1.8 1.1l1.7-.6Z" />
  </symbol>
</svg>
